<?xml version="1.0" encoding="utf-8"?>
<!-- Generator: Adobe Illustrator 22.1.0, SVG Export Plug-In . SVG Version: 6.00 Build 0)  -->
<svg version="1.1" id="Layer_1" xmlns="http://www.w3.org/2000/svg" xmlns:xlink="http://www.w3.org/1999/xlink" x="0px" y="0px"
	 viewBox="0 0 152.5 92.2" style="enable-background:new 0 0 152.5 92.2;" xml:space="preserve">
<g transform="translate(-115.21 -427.49)">
	<path d="M169.9,430.3l-4.3,5.7l2.5,4.3l-6.4,21c-4.2-2.9-9.2-4.6-14.5-4.6c-15.1,0-27.3,13.5-27.3,30.1S132,517,147.1,517
		s27.3-13.5,27.3-30.1c0-9.4-3.9-17.7-10-23.3l1.6-5.2l27.3,33.7c-0.6,0.8-1,1.8-1,2.8c0,2.6,2.1,4.7,4.6,4.7l1.1,6.7l-2,0v3.5
		l7.3,0l0-3.5l-2.1,0l-2.2-7.2c1.1-0.5,1.9-1.4,2.3-2.5l8-1.7c3.3,12.5,13.8,21.6,26.2,21.6c15.1,0,27.3-13.5,27.3-30.1
		s-12.2-30.1-27.3-30.1c-5.5,0-10.6,1.8-14.9,4.9l-0.1-0.1l-9.3-9.9l1.2-4c1.5,0,2.8-0.1,2.9-0.1c0.3,0,2.4-0.4,3.3-1.1
		c1.4-1,2.9-3.1,3.1-3.4s0.4-1,0.1-1.5s-0.9-0.9-1.6-0.9s-1.4,0.1-6.9,0.6s-8.6,0.9-9.7,0.9s-3.9,0-4.2,0.1
		c-0.6,0.2-1.3,0.8-1.3,0.8s0.3,1,0.4,1.3s0.6,1.1,1.2,1.4s2.5,1.2,5.2,1.7c0.8,0.2,2.2,0.2,3.6,0.2l-0.7,2.5l-39.7,0.5l3.1-10.4
		l-0.9-1.9l1.2-1.7l10.5-0.3v-5.7L169.9,430.3L169.9,430.3z M206.5,455.3l-9.7,32.4l-0.3-4.8h1.4l0-3.1l-6.5,0v3.1h1.9l1,5.1
		l-26.8-32.5L206.5,455.3L206.5,455.3z M210.3,455.4l6.6,9.3c-5.2,5.5-8.5,13.2-8.5,21.8c0,1.1,0.1,2.3,0.2,3.4l-8.2,1.7
		c-0.1-0.1-0.2-0.1-0.3-0.2L210.3,455.4L210.3,455.4z M235.8,462.4c12,0,21.8,10.8,21.8,24s-9.8,24-21.8,24c-9.7,0-17.9-7-20.7-16.6
		l24.4-5.1l-15.3-22.6C227.5,463.8,231.5,462.4,235.8,462.4L235.8,462.4z M147.1,462.8c4.7,0,9.1,1.7,12.7,4.5l-2.4,7.9l-10.1,10.7
		c-0.1-0.1-0.2-0.1-0.4-0.2c-0.4-0.2-0.8-0.2-1.2-0.2c-1.8,0-3.3,1.5-3.3,3.3s1.5,3.3,3.3,3.3c1.1,0,2.1-0.6,2.7-1.5l0-0.1
		l11.6-12.4l2.5-8.3c3.9,4.3,6.3,10.3,6.3,16.9c0,13.3-9.8,24-21.8,24s-21.8-10.8-21.8-24S135.1,462.8,147.1,462.8L147.1,462.8z
		 M220.4,469.5l11.1,15.6l-17.4,3.6c-0.1-0.7-0.1-1.5-0.1-2.2C214,479.8,216.4,473.8,220.4,469.5L220.4,469.5z"/>
</g>
</svg>
