<svg xmlns="http://www.w3.org/2000/svg" viewBox="0 0 60.65 60.65"><defs><style>.cls-1{fill:#d1643f;}.cls-2{fill:#fff;}</style></defs><title>Asset 3</title><g id="Layer_2" data-name="Layer 2"><g id="Icons"><circle class="cls-1" cx="30.33" cy="30.33" r="30.33"/><path class="cls-2" d="M30.33,9.49A20.84,20.84,0,1,1,9.49,30.33,20.86,20.86,0,0,1,30.33,9.49Zm0-4.16a25,25,0,1,0,25,25A25,25,0,0,0,30.33,5.33ZM26.16,26.16H22v4.17h4.17v12.5h6.25V30.33H36.2l.38-4.17H32.41V24.42c0-1,.2-1.39,1.16-1.39h3v-5.2h-5c-3.75,0-5.41,1.65-5.41,4.8Z"/></g></g></svg>